<?xml version="1.0" standalone="no"?><!DOCTYPE svg PUBLIC "-//W3C//DTD SVG 1.1//EN" "http://www.w3.org/Graphics/SVG/1.1/DTD/svg11.dtd"><svg t="1752660166548" class="icon" viewBox="0 0 1024 1024" version="1.1" xmlns="http://www.w3.org/2000/svg" p-id="25029" xmlns:xlink="http://www.w3.org/1999/xlink" width="16" height="16"><path d="M830.5 194.2C747.3 110.2 634.2 64 512 64 265 64 64 267.5 64 517.6 64 765.7 260.8 960 512 960s448-194.3 448-442.4c0-124.3-46-239.2-129.5-323.4zM512 900c-220.7 0-393.6-168-393.6-382.3C118.4 300.6 295 124 512 124c220.7 0 393.6 167.9 393.6 382.3C905.6 723.4 729 900 512 900z" fill="#EB5D16" p-id="25030"></path><path d="M470.7 629.6V337.9h54.4v233.4l3.8 3.9h114.8v54.4z" fill="#EB5D16" p-id="25031"></path></svg>