<?xml version="1.0" standalone="no"?><!DOCTYPE svg PUBLIC "-//W3C//DTD SVG 1.1//EN" "http://www.w3.org/Graphics/SVG/1.1/DTD/svg11.dtd"><svg t="1752724996489" class="icon" viewBox="0 0 1024 1024" version="1.1" xmlns="http://www.w3.org/2000/svg" p-id="32068" xmlns:xlink="http://www.w3.org/1999/xlink" width="16" height="16"><path d="M558.8 509.2l302.8-302.8c3.1-3.1 3.1-8.1 0-11.2l-30.8-30.8c-3.1-3.1-8.1-3.1-11.2 0L516.8 467.2c-1.5 1.5-4.1 1.5-5.6 0L208.3 164.3c-3.1-3.1-8.1-3.1-11.2 0l-30.8 30.8c-3.1 3.1-3.1 8.1 0 11.2l302.8 302.8c1.5 1.5 1.5 4.1 0 5.6l-302.8 303c-3.1 3.1-3.1 8.1 0 11.2l30.8 30.8c3.1 3.1 8.1 3.1 11.2 0l302.8-302.8c1.5-1.5 4.1-1.5 5.6 0l302.8 302.8c3.1 3.1 8.1 3.1 11.2 0l30.8-30.8c3.1-3.1 3.1-8.1 0-11.2L558.8 514.8c-1.5-1.5-1.5-4.1 0-5.6z" fill="#aaaaaa" p-id="32069"></path></svg>