<?xml version="1.0" standalone="no"?>
<!DOCTYPE svg PUBLIC "-//W3C//DTD SVG 1.1//EN" "http://www.w3.org/Graphics/SVG/1.1/DTD/svg11.dtd">
<svg t="1755272667459" class="icon" viewBox="0 0 1024 1024" version="1.1"
  xmlns="http://www.w3.org/2000/svg" p-id="4907" xmlns:xlink="http://www.w3.org/1999/xlink"
  width="16" height="16">
  <path
    d="M676.761024 1023.93604 347.238976 1023.93604c-64.919425 0-117.686446-52.767021-117.686446-117.686446L156.574141 153.05634l710.915678 0-73.106309 755.431855C794.44747 971.169019 741.68045 1023.93604 676.761024 1023.93604M208.381761 200.066958l68.053467 703.816115c0.06396 41.190256 31.852092 72.978389 70.739788 72.978389l329.522049 0c38.887695 0 70.611868-31.788132 70.611868-70.611868l68.181387-706.182636L208.381761 200.066958z"
    fill="#5D646F" p-id="4908"></path>
  <path
    d="M735.604247 188.298314 288.395753 188.298314 288.395753 105.917801C288.395753 47.522299 335.918051 0 394.313554 0l235.372892 0c58.459463 0 105.917801 47.522299 105.917801 105.917801L735.604247 188.298314zM311.933042 164.761024l400.133916 0 0-58.843223c0-45.411618-36.968894-82.380512-82.380512-82.380512L394.313554 23.537289c-45.411618 0-82.380512 36.968894-82.380512 82.380512L311.933042 164.761024z"
    fill="#5D646F" p-id="4909"></path>
  <path
    d="M88.328795 153.05634l847.342411 0c13.047845 0 23.537289 10.489444 23.537289 23.537289 0 12.983885-10.489444 23.537289-23.537289 23.537289L88.328795 200.130918c-12.983885 0-23.537289-10.617364-23.537289-23.537289C64.791505 163.545784 75.344909 153.05634 88.328795 153.05634"
    fill="#5D646F" p-id="4910"></path>
  <path
    d="M370.776265 317.753404c13.047845 0 23.537289 10.553404 23.537289 23.601249l23.601249 494.283073c0 12.919925-10.553404 23.473329-23.601249 23.473329-12.983885 0-23.537289-10.553404-23.537289-23.473329L347.238976 341.290693C347.238976 328.242848 357.72842 317.753404 370.776265 317.753404"
    fill="#5D646F" p-id="4911"></path>
  <path
    d="M512 317.753404c13.047845 0 23.537289 10.553404 23.537289 23.601249l0 494.283073c0 12.919925-10.489444 23.473329-23.537289 23.473329-12.983885 0-23.537289-10.553404-23.537289-23.473329L488.462711 341.290693C488.462711 328.242848 499.016115 317.753404 512 317.753404"
    fill="#5D646F" p-id="4912"></path>
  <path
    d="M653.159775 317.753404c13.047845 0 23.601249 10.553404 23.601249 23.601249l-23.601249 494.283073c0 12.919925-10.425484 23.473329-23.473329 23.473329-12.983885 0-23.537289-10.553404-23.537289-23.473329L629.686446 341.290693C629.686446 328.242848 640.17589 317.753404 653.159775 317.753404"
    fill="#5D646F" p-id="4913"></path>
</svg>