<?xml version="1.0" standalone="no"?><!DOCTYPE svg PUBLIC "-//W3C//DTD SVG 1.1//EN" "http://www.w3.org/Graphics/SVG/1.1/DTD/svg11.dtd"><svg t="1752938478898" class="icon" viewBox="0 0 1024 1024" version="1.1" xmlns="http://www.w3.org/2000/svg" p-id="6399" xmlns:xlink="http://www.w3.org/1999/xlink" width="16" height="16"><path d="M826.54417926 894.1606872H197.45582074c-37.28842637 0-67.62751592-30.33908954-67.62751591-67.62751592V197.45582074c0-37.28842637 30.33358555-67.62751592 67.62751591-67.62751591h629.08285452c37.28842637 0 67.62751592 30.33358555 67.62751592 67.62751591v629.07735054c0.00550399 37.28842637-30.33358555 67.62751592-67.62201192 67.62751592z m-629.08835852-706.81129151c-5.57444031 0-10.10532426 4.53748874-10.10532426 10.10532426v629.07845133c0 5.57444031 4.53638793 10.11082825 10.10532426 10.11082824h629.08285452c5.57444031 0 10.11082825-4.53638793 10.11082826-10.11082824V197.45582074c0-5.57444031-4.53638793-10.10532426-10.11082826-10.10532426h-629.08395531z" fill="#2EAA57" p-id="6400"></path><path d="M424.30273769 681.63515028a28.75504144 28.75504144 0 0 1-28.76164624-28.76164622V371.11989116a28.75504144 28.75504144 0 0 1 43.14467094-24.90555136L682.62696914 487.08894465a28.7726542 28.7726542 0 0 1 0 49.81110272L438.68576239 677.78015621a28.73852947 28.73852947 0 0 1-14.3830247 3.85499407z m28.76054543-260.69755162V603.05799815l157.68048562-91.06240134-157.68048562-91.05689736z" fill="#2EAA57" p-id="6401"></path></svg>